<svg xmlns="http://www.w3.org/2000/svg" viewBox="0 0 30 37.5" x="0px" y="0px"><title>rupee_srilanka_forex_LKR</title><path d="M12,20a5,5,0,1,1,5-5A5,5,0,0,1,12,20Zm0-8a3,3,0,1,0,3,3A3,3,0,0,0,12,12Z"/><path d="M23,25a3.89,3.89,0,0,1-3.69-5.11L20.61,16H19a1,1,0,0,1,0-2h3a1,1,0,0,1,.81.41,1,1,0,0,1,.14.91l-1.74,5.21A1.88,1.88,0,0,0,23,23a1,1,0,0,1,0,2Z"/><path d="M10.12,12.47a1,1,0,0,1-.56-1.83s3.71-2.48,4.79-3.4c.41-.35,1.53-1.51,1.92-1.93a1,1,0,1,1,1.46,1.38c-.16.16-1.52,1.6-2.08,2.07-1.18,1-4.82,3.44-5,3.54A1,1,0,0,1,10.12,12.47Z"/><text x="0" y="45" fill="#000000" font-size="5px" font-weight="bold" font-family="'Helvetica Neue', Helvetica, Arial-Unicode, Arial, Sans-serif">Created by P Thanga Vignesh</text><text x="0" y="50" fill="#000000" font-size="5px" font-weight="bold" font-family="'Helvetica Neue', Helvetica, Arial-Unicode, Arial, Sans-serif">from the Noun Project</text></svg>